
Release info:

General
Format                                   : Matroska
Format version                           : Version 2
File size                                : 616 MiB
Duration                                 : 1h 54mn
Overall bit rate mode                    : Variable
Overall bit rate                         : 754 Kbps


Video
ID                                       : 1
Format                                   : MPEG Video
Format version                           : Version 2
Format profile                           : Main@Main
Format settings, BVOP                    : No
Format settings, Matrix                  : Default
Codec ID                                 : V_MPEG2
Codec ID/Info                            : MPEG 1 or 2 Video
Duration                                 : 1h 54mn
Bit rate mode                            : Variable
Bit rate                                 : 611 Kbps
Maximum bit rate                         : 9 672 Kbps
Width                                    : 352 pixels
Height                                   : 288 pixels
Display aspect ratio                     : 4:3
Frame rate mode                          : Constant
Frame rate                               : 25.000 fps
Standard                                 : PAL
Color space                              : YUV
Chroma subsampling                       : 4:2:0
Bit depth                                : 8 bits
Compression mode                         : Lossy
Bits/(Pixel*Frame)                       : 0.241
Stream size                              : 499 MiB (81%)
Title                                    : Dabangg 2 2012
Default                                  : Yes
Forced                                   : No

Audio
ID                                       : 2
Format                                   : MPEG Audio
Format version                           : Version 1
Format profile                           : Layer 2
Muxing mode                              : Header stripping
Codec ID                                 : A_MPEG/L2
Codec ID/Hint                            : MP2
Duration                                 : 1h 54mn
Bit rate mode                            : Constant
Bit rate                                 : 128 Kbps
Channel(s)                               : 2 channels
Sampling rate                            : 48.0 KHz
Compression mode                         : Lossy
Delay relative to video                  : -600ms
Stream size                              : 105 MiB (17%)
Title                                    : Dabangg 2 2012
Default                                  : Yes
Forced                                   : No



Source:
credit to original movie ripper (Thanks)

IMDB Info:

Chulbul Pandey is transferred and promoted to Lucknow. He is happily married with Rajjo and has a child. Lucknow witness a lot of criminal activities daily and kidnapping, rape and murders are done in broad daylight. The main antagonist/villain is a politician and a strong contender for the upcoming elections and Chulbul Pandey sabotages his political image by ...
Director: Arbaaz Khan
Writer: Dilip Shukla
Stars: Salman Khan, Kareena Kapoor and Sonakshi Sinha

Genres: Action | Comedy | Drama | Musical | Romance
 
http://www.imdb.com/title/tt2112131/

Screen Shot:
 
http://www.shotpix.com/images/13493927040898654795.png 
http://www.shotpix.com/images/03181267885719607646.png 
http://www.shotpix.com/images/20049088086275000732.png 
http://www.shotpix.com/images/14897349423430148656.png 
http://www.shotpix.com/images/04023749405874529672.png 
http://www.shotpix.com/images/51771608915902858312.png